<svg xmlns="http://www.w3.org/2000/svg" viewBox="0 0 200 200" width="200" height="200">
  <g transform="translate(100, 100)">
    <!-- Ojo exterior -->
    <path d="M -80 0 Q -40 -40, 0 -40 Q 40 -40, 80 0 Q 40 40, 0 40 Q -40 40, -80 0" 
          fill="none" 
          stroke="#000000" 
          stroke-width="8"/>
    
    <!-- Globo terráqueo azul -->
    <circle cx="0" cy="0" r="30" fill="#2196F3"/>
    
    <!-- Líneas del globo -->
    <path d="M -30 0 Q -15 -20, 0 -30 Q 15 -20, 30 0 Q 15 20, 0 30 Q -15 20, -30 0" 
          fill="none" 
          stroke="#ffffff" 
          stroke-width="2"/>
    
    <!-- Líneas horizontales del globo -->
    <line x1="-30" y1="0" x2="30" y2="0" stroke="#ffffff" stroke-width="2"/>
    <path d="M -25 -15 Q 0 -20, 25 -15" fill="none" stroke="#ffffff" stroke-width="2"/>
    <path d="M -25 15 Q 0 20, 25 15" fill="none" stroke="#ffffff" stroke-width="2"/>
    
    <!-- Silueta de Argentina -->
    <path d="M -5 -20 L -8 -15 L -10 -10 L -12 -5 L -10 0 L -8 5 L -6 10 L -4 15 L -2 20 L 0 25 L 2 20 L 4 15 L 6 10 L 8 5 L 10 0 L 8 -5 L 6 -10 L 4 -15 L 2 -20 Z" 
          fill="#ffffff" 
          opacity="0.8"/>
  </g>
</svg>